<mxfile host="app.diagrams.net" agent="Mozilla/5.0 (Windows NT 10.0; Win64; x64; rv:132.0) Gecko/20100101 Firefox/132.0" version="24.8.6">
  <diagram name="Страница — 2" id="t4BWeIMwdNAYlr5vsalr">
    <mxGraphModel dx="607" dy="-395" grid="1" gridSize="10" guides="1" tooltips="1" connect="1" arrows="1" fold="1" page="1" pageScale="1" pageWidth="827" pageHeight="1169" math="0" shadow="0">
      <root>
        <mxCell id="0" />
        <mxCell id="1" parent="0" />
        <mxCell id="iC79rE2jVAQzZs9qHuh5-1" value="Сервис по доставке еды - Дикоед" style="shape=umlFrame;whiteSpace=wrap;html=1;pointerEvents=0;width=170;height=30;" parent="1" vertex="1">
          <mxGeometry x="960" y="1200" width="640" height="630" as="geometry" />
        </mxCell>
        <mxCell id="iC79rE2jVAQzZs9qHuh5-2" value="Изучить мясную продукцию" style="ellipse;whiteSpace=wrap;html=1;" parent="1" vertex="1">
          <mxGeometry x="980" y="1330" width="125" height="70" as="geometry" />
        </mxCell>
        <mxCell id="iC79rE2jVAQzZs9qHuh5-3" value="Сделать заказ" style="ellipse;whiteSpace=wrap;html=1;" parent="1" vertex="1">
          <mxGeometry x="980" y="1720" width="140" height="70" as="geometry" />
        </mxCell>
        <mxCell id="iC79rE2jVAQzZs9qHuh5-6" value="&lt;span style=&quot;font-style: normal;&quot;&gt;Оплатить заказ&lt;br&gt;банковской картой&lt;/span&gt;" style="ellipse;whiteSpace=wrap;html=1;fontStyle=2" parent="1" vertex="1">
          <mxGeometry x="1300" y="1720" width="140" height="70" as="geometry" />
        </mxCell>
        <mxCell id="iC79rE2jVAQzZs9qHuh5-7" value="&quot;include&quot;" style="html=1;verticalAlign=bottom;endArrow=open;dashed=1;endSize=8;curved=0;rounded=0;entryX=0;entryY=0.5;entryDx=0;entryDy=0;exitX=1;exitY=0.5;exitDx=0;exitDy=0;" parent="1" source="iC79rE2jVAQzZs9qHuh5-3" target="iC79rE2jVAQzZs9qHuh5-6" edge="1">
          <mxGeometry relative="1" as="geometry">
            <mxPoint x="1257.5" y="1790" as="sourcePoint" />
            <mxPoint x="1177.5" y="1790" as="targetPoint" />
          </mxGeometry>
        </mxCell>
        <mxCell id="iC79rE2jVAQzZs9qHuh5-10" value="Искать продукт" style="ellipse;whiteSpace=wrap;html=1;" parent="1" vertex="1">
          <mxGeometry x="1185" y="1250" width="140" height="70" as="geometry" />
        </mxCell>
        <mxCell id="iC79rE2jVAQzZs9qHuh5-11" value="&quot;extend&quot;" style="html=1;verticalAlign=bottom;endArrow=open;dashed=1;endSize=8;curved=0;rounded=0;entryX=1;entryY=0;entryDx=0;entryDy=0;exitX=0;exitY=0.5;exitDx=0;exitDy=0;" parent="1" source="iC79rE2jVAQzZs9qHuh5-10" target="iC79rE2jVAQzZs9qHuh5-2" edge="1">
          <mxGeometry relative="1" as="geometry">
            <mxPoint x="1232.5" y="1404.5" as="sourcePoint" />
            <mxPoint x="1157.5" y="1404.5" as="targetPoint" />
          </mxGeometry>
        </mxCell>
        <mxCell id="iC79rE2jVAQzZs9qHuh5-12" value="Выбрать&lt;div&gt;&amp;nbsp;категорию/сортировку&lt;/div&gt;" style="ellipse;whiteSpace=wrap;html=1;" parent="1" vertex="1">
          <mxGeometry x="1185" y="1430" width="140" height="70" as="geometry" />
        </mxCell>
        <mxCell id="iC79rE2jVAQzZs9qHuh5-13" value="&quot;extend&quot;" style="html=1;verticalAlign=bottom;endArrow=open;dashed=1;endSize=8;curved=0;rounded=0;entryX=1;entryY=1;entryDx=0;entryDy=0;exitX=0;exitY=0.5;exitDx=0;exitDy=0;" parent="1" source="iC79rE2jVAQzZs9qHuh5-12" target="iC79rE2jVAQzZs9qHuh5-2" edge="1">
          <mxGeometry relative="1" as="geometry">
            <mxPoint x="1217.5" y="1580" as="sourcePoint" />
            <mxPoint x="1142.5" y="1580" as="targetPoint" />
          </mxGeometry>
        </mxCell>
        <mxCell id="iC79rE2jVAQzZs9qHuh5-26" value="CRUD корзина" style="ellipse;whiteSpace=wrap;html=1;" parent="1" vertex="1">
          <mxGeometry x="972.5" y="1520" width="140" height="70" as="geometry" />
        </mxCell>
        <mxCell id="iC79rE2jVAQzZs9qHuh5-28" value="Клиент" style="shape=umlActor;verticalLabelPosition=bottom;verticalAlign=top;html=1;outlineConnect=0;" parent="1" vertex="1">
          <mxGeometry x="870" y="1525" width="30" height="60" as="geometry" />
        </mxCell>
        <mxCell id="iC79rE2jVAQzZs9qHuh5-30" value="" style="endArrow=none;html=1;rounded=0;entryX=0;entryY=0.5;entryDx=0;entryDy=0;" parent="1" source="iC79rE2jVAQzZs9qHuh5-28" target="iC79rE2jVAQzZs9qHuh5-2" edge="1">
          <mxGeometry width="50" height="50" relative="1" as="geometry">
            <mxPoint x="1010" y="1620" as="sourcePoint" />
            <mxPoint x="1060" y="1570" as="targetPoint" />
          </mxGeometry>
        </mxCell>
        <mxCell id="iC79rE2jVAQzZs9qHuh5-31" value="" style="endArrow=none;html=1;rounded=0;entryX=0;entryY=0.5;entryDx=0;entryDy=0;" parent="1" source="iC79rE2jVAQzZs9qHuh5-28" target="iC79rE2jVAQzZs9qHuh5-26" edge="1">
          <mxGeometry width="50" height="50" relative="1" as="geometry">
            <mxPoint x="1010" y="1620" as="sourcePoint" />
            <mxPoint x="1060" y="1570" as="targetPoint" />
          </mxGeometry>
        </mxCell>
        <mxCell id="iC79rE2jVAQzZs9qHuh5-33" value="" style="endArrow=none;html=1;rounded=0;entryX=0;entryY=0.5;entryDx=0;entryDy=0;" parent="1" source="iC79rE2jVAQzZs9qHuh5-28" target="iC79rE2jVAQzZs9qHuh5-3" edge="1">
          <mxGeometry width="50" height="50" relative="1" as="geometry">
            <mxPoint x="900" y="1660" as="sourcePoint" />
            <mxPoint x="1060" y="1570" as="targetPoint" />
          </mxGeometry>
        </mxCell>
      </root>
    </mxGraphModel>
  </diagram>
</mxfile>
